PathFileType	4	(X/Y/Z)	C:\Users\Biomechanik\SynologyDrive\AlexP\Athlete_03\Athlete_3_25_03_31\Walking_09\marker_experimental.trc
DataRate	CameraRate	NumFrames	NumMarkers	Units	OrigDataRate	OrigDataStartFrame	OrigNumFrames
200.000000	200.000000	4	53	mm	200.000000	83	222
Frame#	Time	GLAB			RFHD			LFHD			C7			T6			SPINMOL			SPINM2			SPINM3			T12			BELTOL			BELT2			BELT3			SACROL			SACR2			SACR3			LTHOL			LTH2			LTH3			LSHAOL			LSHA2			LSHA3			LHEE			LTOE			LM5			RTH2			RTH3			RSHAOL			RSHA2			RSHA3			RHEE			RTOE			RM5			STRN			XIPH			LACR			LUAOL			LUA2			LUA3			LLAOL			LLA2			LLA3			LWRR			LWRU			RACR			RUAOL			RUA2			RUA3			RLAOL			RLA2			RLA3			RWRR			RWRU			RTHOL			
		X1	Y1	Z1	X2	Y2	Z2	X3	Y3	Z3	X4	Y4	Z4	X5	Y5	Z5	X6	Y6	Z6	X7	Y7	Z7	X8	Y8	Z8	X9	Y9	Z9	X10	Y10	Z10	X11	Y11	Z11	X12	Y12	Z12	X13	Y13	Z13	X14	Y14	Z14	X15	Y15	Z15	X16	Y16	Z16	X17	Y17	Z17	X18	Y18	Z18	X19	Y19	Z19	X20	Y20	Z20	X21	Y21	Z21	X22	Y22	Z22	X23	Y23	Z23	X24	Y24	Z24	X25	Y25	Z25	X26	Y26	Z26	X27	Y27	Z27	X28	Y28	Z28	X29	Y29	Z29	X30	Y30	Z30	X31	Y31	Z31	X32	Y32	Z32	X33	Y33	Z33	X34	Y34	Z34	X35	Y35	Z35	X36	Y36	Z36	X37	Y37	Z37	X38	Y38	Z38	X39	Y39	Z39	X40	Y40	Z40	X41	Y41	Z41	X42	Y42	Z42	X43	Y43	Z43	X44	Y44	Z44	X45	Y45	Z45	X46	Y46	Z46	X47	Y47	Z47	X48	Y48	Z48	X49	Y49	Z49	X50	Y50	Z50	X51	Y51	Z51	X52	Y52	Z52	X53	Y53	Z53	

84	0.415	94.77133178710923	1592.11962890625	270.5303039550781	45.51967239379866	1619.570922851562	334.8113708496094	50.5960540771483	1612.309692382812	197.0576629638672	-130.9601440429689	1433.954223632812	270.8005981445312	-194.8649749755861	1267.998168945312	269.6864318847656	-204.0136871337892	1228.028442382812	248.4567260742187	-209.2991333007814	1220.542114257812	298.2572937011718	-202.0026702880861	1163.807006835938	264.0274963378906	-181.3542785644532	1096.749755859375	263.7182312011718	-216.6918029785157	1062.318237304688	243.4363708496093	-218.9868011474611	1060.34228515625	294.3720703124999	-223.9862823486329	1000.163818359375	264.3040771484374	-204.8942871093751	950.4169311523438	234.627212524414	-208.4448394775392	948.78857421875	286.3795776367187	-223.2922515869142	890.611328125	257.5324707031249	-1.850225090980583	671.4954833984375	63.67752075195312	-20.42664909362798	599.07080078125	87.53269958496094	24.21575546264643	616.8821411132812	74.43373870849609	81.26267242431638	342.9421691894531	65.42215728759767	45.15380477905271	274.975830078125	84.60091400146486	92.89216613769528	282.4140319824219	71.80237579345705	67.33658599853513	78.37332153320312	162.6246643066406	287.1827087402344	93.40097045898439	137.5517883300782	239.5072326660156	60.87410736083986	48.46411514282231	-124.9207305908204	628.0324096679688	446.9345397949219	-171.8910522460939	633.2459106445312	430.0029296874999	-252.3395385742189	347.5007629394531	413.7831115722656	-229.4448852539064	271.8206481933594	411.8048400878906	-273.8426513671876	291.0158996582031	398.9424743652343	-332.8007202148438	79.45174407958983	286.0794067382812	-126.3308410644532	43.81090545654296	302.9928894042969	-180.0265502929688	38.49169921874999	403.7185058593749	33.94804000854479	1325.497802734375	266.231201171875	44.56960678100574	1180.855590820312	268.6911926269531	-61.25929641723643	1392.439819335938	93.70038604736327	-99.5472488403321	1241.848999023438	-8.270592689514178	-125.0938186645509	1183.310791015625	-25.91007232666018	-75.96878814697273	1180.77099609375	-12.79617595672609	-129.2604980468751	985.4281616210938	-66.60335540771487	-176.7501525878907	924.8277587890625	-47.85821151733402	-133.2304077148438	924.1447143554688	-72.36320495605472	-130.969955444336	821.0333862304688	-86.62701416015628	-78.69169616699223	808.3401489257812	-29.47540664672853	-43.00706863403337	1388.345336914062	436.1969909667969	-43.15877151489276	1246.029296875	543.2564086914062	-9.809267044067557	1189.048583984375	550.973876953125	-58.32108306884783	1187.0810546875	568.5789184570312	50.00672149658187	984.3258666992188	589.9127197265625	128.2388458251951	968.7415771484375	592.7454833984375	90.91728973388656	938.4247436523438	579.175048828125	166.2138061523436	888.4522705078125	566.4928588867188	191.9832153320311	908.0070190429688	491.3220520019532	-170.2845458984376	693.2581176757812	441.8966064453124	
85	0.42	101.8390808105467	1590.75439453125	269.3982543945312	52.64758300781234	1618.306274414062	333.6950073242188	57.6325645446776	1610.830078125	195.9190521240234	-123.8885192871095	1432.740966796875	270.1370239257812	-188.0032958984376	1266.912475585938	268.9863281249999	-197.178924560547	1226.94482421875	247.7093963623047	-202.6519470214845	1219.466430664062	297.5179443359374	-195.3484802246095	1162.73095703125	263.2647705078124	-174.8059692382814	1095.5625	262.9600219726562	-209.9245147705079	1060.944091796875	242.5974578857422	-212.4043426513673	1059.102416992188	293.5734252929687	-217.3356018066407	998.83349609375	263.5650634765624	-198.1697235107423	949.1143188476562	233.946792602539	-201.9071807861329	947.7830810546875	285.7344055175781	-216.8862304687501	889.5076293945312	257.1096801757812	3.7905027866363	669.1409301757812	64.44403076171875	-14.66855049133306	597.090087890625	89.3809814453125	29.79939460754389	614.6005249023438	75.43625640869141	92.69860839843747	340.4662170410156	65.18248748779298	58.70738983154294	271.2424621582031	83.71815490722658	106.2177658081054	280.3056030273438	71.24302673339845	87.01262664794919	75.10020446777344	160.8482818603516	306.2826843261719	96.95853424072267	136.3013000488282	259.8465270996094	63.39746475219728	46.99888610839849	-120.4896087646486	627.4273681640625	446.9575500488281	-167.4044952392579	632.9927368164062	429.9989929199218	-250.0366210937501	347.8333129882812	413.7417907714843	-227.6841583251954	271.9819030761719	411.6632995605468	-271.9866027832032	291.5166931152344	398.9394531249999	-332.5974731445313	80.19713592529295	286.0878906249999	-126.2811889648438	43.81359100341796	302.9497375488281	-179.871307373047	38.44554901123045	403.6799926757812	40.856719970703	1323.907470703125	265.5775451660156	51.22372817993152	1179.268676757812	268.1780700683594	-54.23814392089854	1391.046630859375	92.97142791748045	-93.29075622558601	1240.492553710938	-8.850064277648944	-119.126075744629	1182.042602539062	-26.35345840454104	-69.93617248535163	1179.319458007812	-13.43519210815431	-124.5743179321289	984.30224609375	-66.9704513549805	-172.3640136718751	924.0284423828125	-47.94758987426761	-129.0160675048829	923.067626953125	-72.75859832763675	-127.5701522827149	819.94384765625	-87.06076812744143	-74.93215942382817	806.8484497070312	-30.381893157959	-35.85650634765641	1386.97607421875	435.5014343261719	-35.64414215087908	1244.877319335938	542.6007690429688	-2.06806063652056	1188.027465820312	550.454833984375	-50.53590011596697	1185.924438476562	568.0615234375	59.15925216674788	983.89599609375	589.3358154296875	137.5765228271483	969.186767578125	591.75537109375	100.5251007080077	938.4629516601562	578.3611450195312	176.2633819580076	889.3020629882812	565.268310546875	201.5750579833983	909.3563232421875	490.0574035644532	-165.3356170654298	692.9784545898438	441.9438781738281	
86	0.425	108.9223175048827	1589.367919921875	268.235595703125	59.79145812988265	1617.022705078125	332.5489196777344	64.68415832519517	1609.333251953125	194.7508087158203	-116.8116607666017	1431.509765625	269.4388732910156	-181.1152496337892	1265.797973632812	268.2493286132812	-190.3125152587892	1225.829223632812	246.9274139404297	-195.981170654297	1218.365844726562	296.7473144531249	-188.6572418212892	1161.625366210938	262.4721374511718	-168.2152099609376	1094.34765625	262.1824645996093	-203.1237335205079	1059.527954101562	241.7594146728515	-205.7782135009767	1057.822509765625	292.7740783691406	-210.6326751708986	997.4615478515625	262.8315734863281	-191.392059326172	947.800048828125	233.2573699951172	-195.3205718994142	946.7742919921875	285.0770568847656	-210.425750732422	888.3959350585938	256.6797180175781	9.257466316223091	666.7152709960938	65.22069549560547	-9.076764106750542	595.074462890625	91.31351470947266	35.20052337646479	612.2408447265625	76.4482421875	104.0465621948242	338.1143188476562	64.88120269775392	72.1576232910156	267.7164001464844	82.7326126098633	119.4134750366211	278.3707885742188	70.63978576660159	106.4256134033203	72.19096374511719	159.0135650634766	324.9439086914062	100.7300109863281	135.218246459961	279.847412109375	66.1584930419922	45.6646003723145	-116.0745849609376	626.8517456054688	446.996337890625	-162.9097137451173	632.7625732421875	429.9559020996093	-247.6891937255861	348.1956176757812	413.7052612304687	-225.8887634277345	272.1744384765625	411.5352172851562	-270.0872192382813	292.0542602539062	398.9401855468749	-332.3792114257813	81.01324462890624	286.1159362792968	-126.2292022705079	43.82245635986327	302.9024353027344	-179.7136688232423	38.40394592285155	403.6493530273437	47.78221511840808	1322.31396484375	264.888916015625	57.90913391113269	1177.681884765625	267.6230773925781	-47.19449615478526	1389.651611328125	92.20904541015624	-86.97296905517585	1239.129760742188	-9.459035873413102	-113.0892868041993	1180.766845703125	-26.82908248901369	-63.84055328369148	1177.862182617188	-14.09011745452882	-119.7916793823243	983.162353515625	-67.33904266357425	-167.8692169189454	923.2093505859375	-48.03435134887698	-124.6926956176758	921.9773559570312	-73.14775848388675	-124.0377349853516	818.8458251953125	-87.46962738037112	-71.05184173583989	805.3616943359375	-31.25367355346681	-28.6891937255861	1385.582397460938	434.7693481445312	-28.1087894439699	1243.70166015625	541.8890380859375	5.678833961486642	1186.973876953125	549.8775634765625	-42.75353240966815	1184.75048828125	567.4937133789062	68.24226379394514	983.4208984375	588.7191772460938	146.8323669433592	969.5601806640625	590.746826171875	110.0440521240233	938.4473876953125	577.52099609375	186.2039337158201	890.0791625976562	564.0396728515625	211.0610046386717	910.5882568359375	488.7885742187501	-160.3889617919923	692.7250366210938	441.9341125488281	
87	0.43	116.0210723876952	1587.96533203125	267.0425109863281	66.95177459716781	1615.7255859375	331.3726501464844	71.75083160400376	1607.824096679688	193.5529632568359	-109.7304229736329	1430.264892578125	268.7060852050781	-174.1997833251955	1264.658081054688	267.4768676757812	-183.4138183593751	1224.685180664062	246.113052368164	-189.2835845947267	1217.243774414062	295.9473571777343	-181.924758911133	1160.493041992188	261.6515502929687	-161.5771636962892	1093.109619140625	261.3872375488281	-196.2893218994142	1058.076171875	240.9234619140625	-199.1076660156251	1056.507202148438	291.9747314453124	-203.8768615722657	996.0537109375	262.1036987304687	-184.5613555908204	946.4835815429688	232.5566101074218	-188.6841278076173	945.7684936523438	284.4042358398437	-203.9092254638673	887.2841186523438	256.2373046874999	14.57365989685053	664.2398681640625	65.99295806884766	-3.62837123870855	593.04150390625	93.30295562744141	40.44343566894526	609.8250122070312	77.45800781250001	115.2864761352539	335.8960876464844	64.52650451660158	85.47399139404294	264.4093322753906	81.66478729248048	132.4501342773437	276.6133728027344	70.00074005126956	125.5226821899414	69.63498687744142	157.1339721679688	343.1316528320312	104.6817321777344	134.3065185546876	299.4687805175781	69.12521362304689	44.46813583374029	-111.6707992553712	626.310791015625	447.049072265625	-158.4015045166017	632.5587158203125	429.8703613281249	-245.2883911132814	348.5915832519531	413.6744995117187	-224.0511016845704	272.4020385742188	411.4215698242187	-268.1365051269532	292.632568359375	398.9458923339843	-332.1420593261719	81.90663909912108	286.1641540527343	-126.1741561889649	43.83626174926757	302.8495788574219	-179.5545349121095	38.36973953247069	403.6273498535156	54.72555541992175	1320.724853515625	264.1646728515625	64.62787628173817	1176.102661132812	267.0263977050781	-40.12984848022471	1388.258666992188	91.41363525390624	-80.5929031372071	1237.76416015625	-10.09803867340089	-106.981674194336	1179.486328125	-27.3379707336426	-57.68100357055671	1176.40283203125	-14.75991916656495	-114.9083557128907	982.0114135742188	-67.71120452880861	-163.2619171142579	922.372802734375	-48.12254333496097	-120.2551956176758	920.8761596679688	-73.53240966796878	-120.3666381835938	817.7413940429688	-87.85664367675784	-67.04673004150395	803.882080078125	-32.09083175659181	-21.50576019287126	1384.171752929688	434.0000610351562	-20.55261993408221	1242.508178710938	541.1200561523438	13.42995738983137	1185.893676757812	549.240478515625	-34.97481536865252	1183.565307617188	566.8736572265625	77.25117492675764	982.9032592773438	588.0618286132812	156.0021667480467	969.8616333007812	589.7208862304688	119.4687118530272	938.37939453125	576.6544189453125	196.0301818847655	890.7811279296875	562.8074340820312	220.4402465820311	911.7019653320312	487.5181579589844	-155.4420471191407	692.5033569335938	441.8616333007812	
